<?xml version="1.0" encoding="iso-8859-1"?>
<!-- Generator: Adobe Illustrator 19.0.0, SVG Export Plug-In . SVG Version: 6.00 Build 0)  -->
<svg dill='#016DD4' version="1.1" id="Capa_1" xmlns="http://www.w3.org/2000/svg" xmlns:xlink="http://www.w3.org/1999/xlink" x="0px" y="0px"
	 viewBox="0 0 512 512" style="enable-background:new 0 0 512 512;" xml:space="preserve">
<g>
	<g>
		<g>
			<path d="M459.36,100.64l-96-96C360.341,1.645,356.253-0.024,352,0H96c-26.51,0-48,21.49-48,48v416c0,26.51,21.49,48,48,48h320
				c26.51,0,48-21.49,48-48V112C464.025,107.747,462.355,103.66,459.36,100.64z M432,464c0,8.837-7.163,16-16,16H96
				c-8.837,0-16-7.163-16-16V48c0-8.837,7.163-16,16-16h240v64c0,17.673,14.327,32,32,32h64V464z"/>
			<path d="M321.12,288c-4.637-0.34-9.192,1.354-12.48,4.64L288,313.44l-52.64-52.64c-2.993-3.054-7.084-4.782-11.36-4.8
				c-4.477,0.221-8.656,2.311-11.52,5.76l-80,96c-5.665,6.781-4.76,16.872,2.021,22.537c2.678,2.237,6.014,3.537,9.499,3.703h224
				c8.837,0,16-7.163,16-16c0-3.462-1.123-6.831-3.2-9.6l-48-64C330.022,290.671,325.758,288.335,321.12,288z"/>
			<circle cx="304" cy="224" r="32"/>
		</g>
	</g>
</g>
<g>
</g>
<g>
</g>
<g>
</g>
<g>
</g>
<g>
</g>
<g>
</g>
<g>
</g>
<g>
</g>
<g>
</g>
<g>
</g>
<g>
</g>
<g>
</g>
<g>
</g>
<g>
</g>
<g>
</g>
</svg>
