<svg fill='#016DD4' height="511pt" viewBox="-7 0 511 511.998" width="511pt" xmlns="http://www.w3.org/2000/svg"><path d="m103.152344 129.042969c35.574218 0 64.519531-28.945313 64.519531-64.519531 0-35.578126-28.945313-64.523438-64.519531-64.523438-35.578125 0-64.523438 28.945312-64.523438 64.519531 0 35.578125 28.945313 64.523438 64.523438 64.523438zm0 0"/><path d="m480.449219 308.949219h-12.980469c-3.8125-22.910157-12.8125-44.058594-25.769531-62.199219l9.183593-9.179688c6.871094-6.871093 6.871094-18.011718 0-24.882812l-10.121093-10.125c-3.4375-3.433594-7.941407-5.152344-12.441407-5.152344-4.503906 0-9.007812 1.71875-12.441406 5.152344l-9.183594 9.183594c-18.136718-12.957032-39.289062-21.957032-62.199218-25.769532v-12.980468c0-9.714844-7.875-17.59375-17.59375-17.59375h-14.316406c-9.714844 0-17.59375 7.878906-17.59375 17.59375v12.980468c-22.90625 3.8125-44.058594 12.8125-62.199219 25.769532l-9.179688-9.183594c-3.433593-3.433594-7.9375-5.152344-12.441406-5.152344s-9.003906 1.71875-12.441406 5.152344l-10.121094 10.125c-6.871094 6.871094-6.871094 18.007812 0 24.878906l9.179687 9.183594c-12.953124 18.136719-21.957031 39.289062-25.765624 62.199219h-12.980469c-9.71875 0-17.59375 7.875-17.59375 17.59375v14.316406c0 9.714844 7.875 17.59375 17.59375 17.59375h12.980469c3.808593 22.90625 12.8125 44.058594 25.765624 62.199219l-9.179687 9.179687c-6.871094 6.871094-6.871094 18.011719 0 24.882813l10.121094 10.125c3.4375 3.433594 7.9375 5.152344 12.441406 5.152344s9.007813-1.71875 12.441406-5.152344l9.183594-9.183594c18.136719 12.957031 39.289063 21.957031 62.195313 25.765625v12.980469c0 9.71875 7.878906 17.59375 17.597656 17.59375h14.3125c9.71875 0 17.59375-7.875 17.59375-17.59375v-12.980469c22.910156-3.808594 44.0625-12.8125 62.199218-25.765625l9.183594 9.183594c3.433594 3.433594 7.9375 5.152344 12.441406 5.152344 4.5 0 9.003907-1.71875 12.441407-5.152344l10.121093-10.125c6.871094-6.871094 6.871094-18.011719 0-24.882813l-9.183593-9.179687c12.957031-18.140625 21.957031-39.292969 25.769531-62.199219h12.980469c9.714843 0 17.59375-7.878906 17.59375-17.59375v-14.316406c0-9.714844-7.878907-17.59375-17.59375-17.59375zm-160.703125 127.324219c-56.558594 0-102.570313-46.015626-102.570313-102.574219 0-56.554688 46.011719-102.570313 102.570313-102.570313 56.554687 0 102.570312 46.015625 102.570312 102.570313 0 56.558593-46.015625 102.574219-102.570312 102.574219zm0 0"/><path d="m145.84375 277.816406c3.050781-9.472656 6.875-18.703125 11.417969-27.5625-11.058594-19.28125-8.359375-44.363281 8.09375-60.820312l9.035156-9.035156c-14.363281-11.542969-32.585937-18.472657-52.40625-18.472657h-37.667969c-46.214844 0-83.816406 37.601563-83.816406 83.816407v117.65625h113.386719c-3.402344-6.789063-5.324219-14.441407-5.324219-22.539063v-14.316406c0-23.269531 15.828125-42.910157 37.28125-48.726563zm0 0"/><path d="m319.746094 264.015625c-38.425782 0-69.6875 31.261719-69.6875 69.683594 0 38.425781 31.261718 69.6875 69.6875 69.6875 38.425781 0 69.6875-31.261719 69.6875-69.6875 0-38.421875-31.261719-69.683594-69.6875-69.683594zm0 0"/></svg>